<svg xmlns="http://www.w3.org/2000/svg" xmlns:xlink="http://www.w3.org/1999/xlink" version="1.1" enable-background="new 0 0 255 100" xml:space="preserve" width="447" height="160" style=""><rect id="backgroundrect" width="100%" height="100%" x="0" y="0" fill="none" stroke="none" class="" style=""/>

<g class="currentLayer" style=""><title>Layer 1</title><g id="svg_1" class="selected">
	
		<rect x="-3.2699136217452747" y="-203.39569205196585" transform="matrix(0.7071,0.7071,-0.7071,0.7071,78.7514,-88.307) " fill="#F3F4F4" width="448.2950134277344" height="461.864990234375" id="svg_2"/>
	
		<rect x="142.99809174934853" y="-37.69469851406302" transform="matrix(0.7071,0.7071,-0.7071,0.7071,30.1288,-53.798) " fill="#83CDAC" width="23.823999404907227" height="47.58700180053711" id="svg_3"/>
	
		<rect x="264.14108949104775" y="-55.774697484094816" transform="matrix(0.7071,0.7071,-0.7071,0.7071,67.8495,-148.7645) " fill="#83CDAC" width="48.52799987792969" height="79.84600067138672" id="svg_4"/>
	
		<rect x="95.7980890790605" y="46.25929909793649" transform="matrix(0.7071,0.7071,-0.7071,0.7071,85.8252,-2.9809) " fill="#8AD0FF" width="51.23899841308594" height="64.95899963378906" id="svg_5"/>
	
		<rect x="319.86308961311806" y="-42.77069777401181" transform="matrix(0.7071,0.7071,-0.7071,0.7071,88.9665,-180.4892) " fill="#8AD0FF" width="34.79199981689453" height="73.09500122070312" id="svg_6"/>
	
		<rect x="184.2057048693486" y="84.5540886441849" transform="matrix(0.7071,-0.7071,0.7071,0.7071,-59.711,158.8013) " fill="#ECECEC" width="2" height="283.6610107421875" id="svg_7"/>
	
		<rect x="208.50270193966116" y="93.36608796516884" transform="matrix(0.7071,-0.7071,0.7071,0.7071,11.8483,149.2889) " fill="#ECECEC" width="2" height="83.76499938964844" id="svg_8"/>
	
		<rect x="293.05371207149705" y="-223.08390135367887" transform="matrix(0.7071,-0.7071,0.7071,0.7071,131.4838,169.7787) " fill="#ECECEC" width="2" height="448.3299865722656" id="svg_9"/>
	
		<rect x="-9.932303248327173" y="20.753089002766558" transform="matrix(0.7071,-0.7071,0.7071,0.7071,-28.7033,-14.8713) " fill="#ECECEC" width="2" height="162.72999572753906" id="svg_10"/>
	
		<rect x="8.475697697717749" y="228.1910925428055" transform="matrix(0.7071,-0.7071,0.7071,0.7071,-69.3363,141.1781) " fill="#ECECEC" width="301.2869873046875" height="2" id="svg_11"/>
	
		<rect x="132.1017009630986" y="210.74808411995411" transform="matrix(0.7071,-0.7071,0.7071,0.7071,-10.3491,248.6981) " fill="#ECECEC" width="372.5979919433594" height="2" id="svg_12"/>
	
		<rect x="40.21469801815249" y="226.66509156624318" transform="matrix(0.7071,-0.7071,0.7071,0.7071,-35.4387,219.9615) " fill="#ECECEC" width="461.9070129394531" height="2" id="svg_13"/>
	
		<rect x="236.86369437130168" y="58.49808793465127" transform="matrix(0.7071,-0.7071,0.7071,0.7071,57.7853,153.7561) " fill="#75BA98" width="2" height="47.064998626708984" id="svg_14"/>
	
		<rect x="40.01869887264451" y="-34.85691160758512" transform="matrix(0.7071,-0.7071,0.7071,0.7071,34.9086,0.1602) " fill="#ECECEC" width="2" height="135.40899658203125" id="svg_15"/>
	
		<rect x="-16.248301325719638" y="15.741087965168845" transform="matrix(0.7071,-0.7071,0.7071,0.7071,-7.6729,-28.8149) " fill="#ECECEC" width="2" height="108.03900146484375" id="svg_16"/>
	
		<rect x="-124.38030892459665" y="60.576088956990134" transform="matrix(0.7071,-0.7071,0.7071,0.7071,32.7425,55.3864) " fill="#FFFFFF" width="461.9590148925781" height="4.999000072479248" id="svg_17"/>
	
		<rect x="-32.62030297366897" y="152.32208924690707" transform="matrix(0.7071,-0.7071,0.7071,0.7071,-5.2576,147.1383) " fill="#FFFFFF" width="461.9469909667969" height="4.999000072479248" id="svg_18"/>
	
		<rect x="-18.646300135534204" y="207.81809144417275" transform="matrix(0.7071,-0.7071,0.7071,0.7071,-67.6466,104.5112) " fill="#ECECEC" width="268.70001220703125" height="2" id="svg_19"/>
	
		<rect x="-143.7662952527216" y="42.69908814827426" transform="matrix(0.7071,-0.7071,0.7071,0.7071,40.7667,36.006) " fill="#ECECEC" width="461.9670104980469" height="2" id="svg_20"/>
	
		<rect x="92.59069937618466" y="135.71808915535445" transform="matrix(0.7071,-0.7071,0.7071,0.7071,-14.3601,88.9548) " fill="#ECECEC" width="61.95600128173828" height="2" id="svg_21"/>
	
		<rect x="-6.407301722448153" y="178.51509004036427" transform="matrix(0.7071,-0.7071,0.7071,0.7071,-16.1056,173.3353) " fill="#FFFFFF" width="461.9179992675781" height="4.999000072479248" id="svg_22"/>
	
		<rect x="228.5386974230596" y="72.56608896652699" transform="matrix(0.7071,-0.7071,0.7071,0.7071,-27.8972,183.5929) " fill="#FFFFFF" width="4.999000072479248" height="255.6219940185547" id="svg_23"/>
	<path fill="#FEE379" d="M161.75051611328126,85.81867478179932 c-9.793,0 -17.894,-3.996 -22.398,-7.789 l-0.252,-0.231 L23.530516113281237,-37.77232521820068 l5.657,-5.6560000000000015 L144.6145161132813,71.99867478179931 c1.7610000000000001,1.401 20.604,15.461 42.108,-6.039 l167,-167.001 l5.657,5.6560000000000015 l-167,167.001 C181.7345161132812,82.26067478179931 170.9895161132813,85.81867478179932 161.75051611328126,85.81867478179932 z" id="svg_24"/>
	
		<rect x="-104.99289256017272" y="78.47639244226741" transform="matrix(0.707,-0.7072,0.7072,0.707,24.7136,74.7907) " fill="#FEE379" width="461.959014892578" height="7.999999999999998" id="svg_25"/>
	
		<rect x="-180.88489085118846" y="2.5843955817632036" transform="matrix(0.707,-0.7072,0.7072,0.707,56.1491,-1.1106) " fill="#FEE379" width="461.959014892578" height="7.999999999999998" id="svg_26"/>
	
		<rect x="16.01510447580739" y="199.48438947824758" transform="matrix(0.707,-0.7072,0.7072,0.707,-25.4094,195.8132) " fill="#FEE379" width="461.959014892578" height="7.999999999999998" id="svg_27"/>
	
		<rect x="-66.72730141727249" y="118.22909074226857" transform="matrix(0.7071,-0.7071,0.7071,0.7071,8.8618,113.0396) " fill="#FFFFFF" width="461.9590148925781" height="4.999000072479248" id="svg_28"/>
	
		<rect x="112.40469473751267" y="-45.44790739615934" transform="matrix(0.7071,-0.7071,0.7071,0.7071,-46.1593,96.1916) " fill="#FEE379" width="8" height="448.3380126953125" id="svg_29"/>
	
		<rect x="192.00470084102835" y="-125.04790587028026" transform="matrix(0.7071,-0.7071,0.7071,0.7071,33.4409,129.1632) " fill="#FEE379" width="8" height="448.3380126953125" id="svg_30"/>
	
		<rect x="269.06970328243455" y="-202.1119164903975" transform="matrix(0.7071,-0.7071,0.7071,0.7071,110.5052,161.0843) " fill="#FEE379" width="8" height="448.3380126953125" id="svg_31"/>
	
		<rect x="64.7566997423956" y="2.200087598957907" transform="matrix(0.7071,-0.7071,0.7071,0.7071,-93.8072,76.4552) " fill="#FEE379" width="8" height="448.3380126953125" id="svg_32"/>
	<circle fill="#FEE379" cx="141.48151397705078" cy="74.64367389678955" r="13.053000450134277" id="svg_33"/>
	<circle fill="#FFFFFF" cx="141.48151397705078" cy="74.64367389678955" r="4.4730000495910645" id="svg_34"/>
	
		<rect x="310.7156993761845" y="78.9360890905046" transform="matrix(0.7071,-0.7071,0.7071,0.7071,17.6033,232.8247) " fill="#FFFFFF" width="4.999000072479248" height="182.26699829101562" id="svg_35"/>
</g></g></svg>